<!DOCTYPE svg PUBLIC "-//W3C//DTD SVG 1.1//EN" "http://www.w3.org/Graphics/SVG/1.1/DTD/svg11.dtd">
<!-- Uploaded to: SVG Repo, www.svgrepo.com, Transformed by: SVG Repo Mixer Tools -->
<svg width="800px" height="800px" viewBox="-2.4 -2.4 28.80 28.80" fill="none" xmlns="http://www.w3.org/2000/svg" stroke="#ebebeb">
<g id="SVGRepo_bgCarrier" stroke-width="0"/>
<g id="SVGRepo_tracerCarrier" stroke-linecap="round" stroke-linejoin="round" stroke="#CCCCCC" stroke-width="0.048"/>
<g id="SVGRepo_iconCarrier">
<path d="M18.6 22H5.4A2.4 2.4 0 0 1 3 19.588V8.332c0-.382.18-.734.48-.965l7.78-5.126a1.195 1.195 0 0 1 1.44 0l7.82 5.126c.3.231.48.583.48.965v11.256A2.4 2.4 0 0 1 18.6 22Z" fill="#ffffff" fill-opacity=".16"/>
<path d="m1 9 10.26-6.76a1.2 1.2 0 0 1 1.44 0L23 9" stroke="#ffffff" stroke-width="1.104" stroke-linecap="round" stroke-linejoin="round"/>
<path d="M21 8v11.6c0 1.33-1.07 2.4-2.4 2.4H5.4C4.07 22 3 20.93 3 19.6V8" stroke="#ffffff" stroke-width="1.104" stroke-linecap="round" stroke-linejoin="round"/>
<path d="M9.8 12h4.4c.44 0 .8.36.8.8V22H9v-9.2c0-.44.36-.8.8-.8Z" fill="#ffffff" stroke="#ffffff" stroke-width="1.104" stroke-miterlimit="10"/>
<path d="M18 3v2" stroke="#ffffff" stroke-width="1.104" stroke-linecap="round" stroke-linejoin="round"/>
<path d="M15 8H9" stroke="#ffffff" stroke-width="1.104" stroke-miterlimit="10" stroke-linecap="round"/>
</g>
</svg>