<?xml version="1.0" encoding="utf-8"?>
<svg xmlns="http://www.w3.org/2000/svg" height="512pt" version="1.1" viewBox="0 0 512 512" width="512pt">
<path d="M 0.00 0.00 L 512.00 0.00 L 512.00 512.00 L 0.00 512.00 L 0.00 0.00 Z" fill="#dbdbda" opacity="1.00" stroke="#dbdbda" stroke-width="0.25"/>
<path d="M 233.36 147.62 C 240.70 135.12 247.51 122.32 254.76 109.77 C 261.46 121.81 268.09 133.90 274.78 145.95 C 273.16 148.18 270.90 150.01 268.14 150.54 C 266.56 149.77 265.19 148.63 263.77 147.60 C 262.87 147.96 261.98 148.32 261.09 148.69 C 260.03 147.61 259.16 145.82 257.35 146.59 C 256.34 144.62 255.44 142.59 254.54 140.57 C 253.91 141.71 253.27 142.84 252.65 143.98 C 249.86 145.33 247.82 147.94 244.77 148.78 C 242.68 149.43 241.64 151.59 240.20 153.08 C 239.23 152.24 238.26 151.41 237.29 150.58 C 236.15 151.35 235.01 152.12 233.87 152.88 C 233.50 151.15 233.25 149.39 233.36 147.62 Z" fill="#464545" opacity="1.00" stroke="#464545" stroke-width="0.25"/>
<path d="M 252.65 143.98 C 253.27 142.84 253.91 141.71 254.54 140.57 C 255.44 142.59 256.34 144.62 257.35 146.59 C 261.55 154.20 265.63 161.89 270.10 169.35 C 282.36 191.61 294.80 213.78 307.48 235.82 C 316.58 251.52 325.54 267.31 334.94 282.86 C 345.02 299.54 354.76 316.44 364.51 333.32 C 372.16 346.12 379.52 359.09 387.04 371.97 C 390.01 376.99 392.36 382.44 396.25 386.86 C 370.18 385.99 344.08 386.68 318.00 386.44 C 301.34 386.31 284.67 386.52 268.01 386.48 C 267.99 383.63 267.95 380.78 267.96 377.93 C 267.86 356.98 267.53 336.03 267.58 315.08 C 267.49 306.10 267.72 297.11 267.20 288.15 C 267.64 288.88 268.07 289.63 268.51 290.37 C 267.82 293.89 268.48 297.45 268.59 300.98 C 268.83 324.30 268.44 347.63 268.68 370.95 C 268.65 375.65 268.39 380.37 269.01 385.05 C 273.32 385.57 277.67 385.46 282.01 385.42 C 311.68 385.54 341.35 385.43 371.01 385.37 C 373.62 385.29 376.59 385.72 378.58 383.61 C 382.77 384.05 386.99 384.14 391.20 384.47 C 384.19 373.35 378.25 361.59 371.45 350.33 C 366.22 341.41 360.83 332.59 355.82 323.55 C 349.98 313.23 343.96 303.01 337.93 292.80 C 325.94 271.97 313.20 251.57 301.50 230.58 C 292.17 214.51 283.22 198.22 273.93 182.12 C 267.44 170.56 261.26 158.80 254.36 147.48 C 246.75 159.57 240.25 172.31 233.00 184.62 C 216.84 212.49 200.68 240.37 184.60 268.29 C 176.74 281.83 168.31 295.03 160.28 308.47 C 155.72 315.81 151.53 323.37 147.18 330.83 C 147.00 330.77 146.65 330.64 146.47 330.57 C 156.89 312.79 166.32 294.45 176.76 276.68 C 179.73 271.42 183.01 266.34 185.83 261.00 C 194.81 245.65 203.59 230.18 212.48 214.78 C 219.95 202.06 227.26 189.26 234.64 176.49 C 240.61 165.63 246.97 154.99 252.65 143.98 Z" fill="#d4d3d3" opacity="1.00" stroke="#d4d3d3" stroke-width="0.25"/>
<path d="M 244.77 148.78 C 247.82 147.94 249.86 145.33 252.65 143.98 C 246.97 154.99 240.61 165.63 234.64 176.49 C 231.23 175.47 230.30 180.24 228.51 182.25 C 228.19 182.11 227.55 181.84 227.23 181.70 C 227.02 182.69 226.81 183.67 226.61 184.67 C 223.68 183.30 220.12 181.74 217.40 184.46 C 217.13 184.32 216.60 184.03 216.33 183.89 C 216.80 181.37 217.22 178.83 217.58 176.29 C 222.48 166.56 228.23 157.24 233.36 147.62 C 233.25 149.39 233.50 151.15 233.87 152.88 C 235.01 152.12 236.15 151.35 237.29 150.58 C 238.26 151.41 239.23 152.24 240.20 153.08 C 241.64 151.59 242.68 149.43 244.77 148.78 Z" fill="#3a3a3a" opacity="1.00" stroke="#3a3a3a" stroke-width="0.25"/>
<path d="M 257.35 146.59 C 259.16 145.82 260.03 147.61 261.09 148.69 C 261.98 148.32 262.87 147.96 263.77 147.60 C 265.19 148.63 266.56 149.77 268.14 150.54 C 270.90 150.01 273.16 148.18 274.78 145.95 C 279.80 155.52 285.40 164.77 290.47 174.31 C 290.10 175.83 289.75 177.35 289.39 178.88 C 286.26 177.03 282.67 177.78 279.26 177.58 C 274.91 176.50 274.15 170.76 270.10 169.35 C 265.63 161.89 261.55 154.20 257.35 146.59 Z" fill="#393939" opacity="1.00" stroke="#393939" stroke-width="0.25"/>
<path d="M 254.36 147.48 C 261.26 158.80 267.44 170.56 273.93 182.12 C 270.81 183.75 267.27 184.03 263.89 184.78 C 257.64 186.17 251.24 184.46 244.96 185.49 C 246.63 186.94 248.64 187.85 250.86 187.99 C 249.89 187.32 248.92 186.65 247.95 185.98 C 249.56 185.96 251.21 185.72 252.82 186.02 C 253.87 186.60 254.10 187.92 254.66 188.89 C 249.43 189.55 244.11 189.80 238.91 188.75 C 239.12 187.71 239.33 186.66 239.54 185.62 C 240.02 186.33 240.50 187.05 240.98 187.77 C 242.02 187.77 243.07 187.77 244.12 187.78 C 242.86 186.33 241.31 184.62 239.16 185.18 C 237.29 186.23 235.68 187.67 234.00 188.98 C 233.67 187.53 233.33 186.07 233.00 184.62 C 240.25 172.31 246.75 159.57 254.36 147.48 Z" fill="#2c2c2c" opacity="1.00" stroke="#2c2c2c" stroke-width="0.25"/>
<path d="M 303.04 167.87 C 303.68 167.93 304.96 168.03 305.60 168.09 C 317.41 169.45 329.32 168.04 341.16 168.75 C 340.68 169.85 340.19 170.93 339.70 172.02 C 339.45 171.72 338.96 171.14 338.71 170.85 C 328.47 172.05 318.13 171.82 307.87 172.50 C 318.64 173.09 329.44 172.43 340.23 172.63 C 340.14 173.20 339.96 174.35 339.88 174.92 L 339.49 174.86 C 333.04 173.79 326.48 174.08 319.98 174.01 C 314.78 174.14 309.50 173.69 304.39 174.88 L 304.21 174.91 C 304.21 172.51 304.30 170.01 303.04 167.87 Z" fill="#383739" opacity="1.00" stroke="#383739" stroke-width="0.25"/>
<path d="M 305.60 168.09 C 318.09 167.75 330.60 167.92 343.09 167.99 C 342.61 168.18 341.64 168.56 341.16 168.75 C 329.32 168.04 317.41 169.45 305.60 168.09 Z" fill="#1d1d1e" opacity="1.00" stroke="#1d1d1e" stroke-width="0.25"/>
<path d="M 270.10 169.35 C 274.15 170.76 274.91 176.50 279.26 177.58 C 282.67 177.78 286.26 177.03 289.39 178.88 C 289.75 177.35 290.10 175.83 290.47 174.31 C 295.16 183.37 301.37 191.58 305.43 200.97 C 304.14 193.04 304.93 184.97 304.34 176.98 C 314.89 176.88 325.44 177.14 335.99 177.03 C 335.75 200.80 336.08 224.58 335.87 248.36 C 335.08 244.54 335.09 240.62 334.45 236.78 C 333.37 242.84 334.19 249.01 333.65 255.11 C 332.39 246.71 334.09 238.13 332.41 229.79 C 332.09 232.06 331.86 234.34 331.65 236.62 C 326.16 236.24 320.66 235.34 315.17 236.19 C 312.97 236.64 310.98 235.52 309.07 234.62 C 308.67 234.92 307.88 235.52 307.48 235.82 C 294.80 213.78 282.36 191.61 270.10 169.35 Z" fill="#242424" opacity="1.00" stroke="#242424" stroke-width="0.25"/>
<path d="M 307.87 172.50 C 318.13 171.82 328.47 172.05 338.71 170.85 C 338.96 171.14 339.45 171.72 339.70 172.02 L 340.23 172.63 C 329.44 172.43 318.64 173.09 307.87 172.50 Z" fill="#202021" opacity="1.00" stroke="#202021" stroke-width="0.25"/>
<path d="M 304.39 174.88 C 309.50 173.69 314.78 174.14 319.98 174.01 C 326.48 174.08 333.04 173.79 339.49 174.86 C 327.81 175.21 316.07 175.47 304.39 174.88 Z" fill="#1e1e20" opacity="1.00" stroke="#1e1e20" stroke-width="0.25"/>
<path d="M 228.51 182.25 C 230.30 180.24 231.23 175.47 234.64 176.49 C 227.26 189.26 219.95 202.06 212.48 214.78 L 211.91 213.53 C 207.86 215.62 207.06 220.87 203.22 223.30 C 203.55 221.71 204.02 220.16 204.58 218.64 C 203.21 217.90 201.85 217.16 200.48 216.42 C 199.76 217.56 199.04 218.70 198.32 219.84 C 197.25 218.57 196.19 217.30 195.16 216.00 C 202.62 202.75 210.00 189.46 217.58 176.29 C 217.22 178.83 216.80 181.37 216.33 183.89 C 216.60 184.03 217.13 184.32 217.40 184.46 C 220.12 181.74 223.68 183.30 226.61 184.67 C 226.81 183.67 227.02 182.69 227.23 181.70 C 227.55 181.84 228.19 182.11 228.51 182.25 Z" fill="#2c2c2c" opacity="1.00" stroke="#2c2c2c" stroke-width="0.25"/>
<path d="M 335.99 177.03 C 336.18 177.29 336.57 177.81 336.76 178.07 C 336.59 203.72 337.00 229.40 336.70 255.06 C 336.53 255.61 336.19 256.72 336.02 257.27 C 336.00 254.30 335.99 251.33 335.87 248.36 C 336.08 224.58 335.75 200.80 335.99 177.03 Z" fill="#e9e9e8" opacity="1.00" stroke="#e9e9e8" stroke-width="0.25"/>
<path d="M 263.89 184.78 C 267.27 184.03 270.81 183.75 273.93 182.12 C 283.22 198.22 292.17 214.51 301.50 230.58 C 300.47 232.72 300.70 236.37 297.88 237.06 C 296.31 237.61 294.65 237.14 293.09 236.83 C 288.77 235.80 284.24 235.19 279.82 235.71 C 277.62 237.37 279.10 240.96 276.71 242.74 C 275.27 239.54 273.51 236.50 272.12 233.27 C 271.39 233.26 269.92 233.25 269.19 233.24 C 263.90 223.35 258.22 213.68 253.10 203.70 C 249.04 209.86 245.47 216.33 241.80 222.72 C 231.98 239.89 222.21 257.09 212.70 274.43 C 207.89 274.95 202.49 276.03 198.13 273.31 C 195.53 271.66 192.17 271.64 189.91 269.37 C 188.50 270.98 187.17 272.66 186.03 274.47 C 185.07 275.33 184.11 276.20 183.08 276.98 C 183.14 274.69 184.20 272.71 185.72 271.05 C 185.44 270.36 184.88 268.98 184.60 268.29 C 200.68 240.37 216.84 212.49 233.00 184.62 C 233.33 186.07 233.67 187.53 234.00 188.98 C 235.68 187.67 237.29 186.23 239.16 185.18 C 241.31 184.62 242.86 186.33 244.12 187.78 C 243.07 187.77 242.02 187.77 240.98 187.77 C 240.50 187.05 240.02 186.33 239.54 185.62 C 239.33 186.66 239.12 187.71 238.91 188.75 C 244.11 189.80 249.43 189.55 254.66 188.89 C 254.10 187.92 253.87 186.60 252.82 186.02 C 251.21 185.72 249.56 185.96 247.95 185.98 C 248.92 186.65 249.89 187.32 250.86 187.99 C 248.64 187.85 246.63 186.94 244.96 185.49 C 251.24 184.46 257.64 186.17 263.89 184.78 Z" fill="#202020" opacity="1.00" stroke="#202020" stroke-width="0.25"/>
<path d="M 241.80 222.72 C 245.47 216.33 249.04 209.86 253.10 203.70 C 258.22 213.68 263.90 223.35 269.19 233.24 C 276.94 247.52 285.51 261.33 293.28 275.60 C 294.45 277.71 295.48 279.91 296.23 282.21 C 292.97 276.53 290.07 270.66 286.52 265.14 C 279.96 253.56 272.85 242.29 266.56 230.54 C 261.81 222.28 257.63 213.70 252.85 205.44 C 239.99 227.18 227.59 249.19 215.27 271.24 C 213.21 274.62 211.43 278.17 209.14 281.40 C 210.20 279.01 211.44 276.72 212.70 274.43 C 222.21 257.09 231.98 239.89 241.80 222.72 Z" fill="#d4d3d3" opacity="1.00" stroke="#d4d3d3" stroke-width="0.25"/>
<path d="M 215.27 271.24 C 227.59 249.19 239.99 227.18 252.85 205.44 C 257.63 213.70 261.81 222.28 266.56 230.54 C 272.85 242.29 279.96 253.56 286.52 265.14 C 285.91 267.86 286.51 270.57 287.54 273.10 C 285.07 275.50 284.81 278.94 286.31 281.94 C 285.81 281.79 285.31 281.66 284.82 281.52 C 282.85 278.37 281.08 275.10 279.07 271.97 C 278.55 270.85 277.50 270.24 276.26 270.42 C 268.20 256.05 259.88 241.80 252.65 226.97 C 245.23 241.64 237.17 255.96 229.22 270.34 C 226.84 274.49 224.39 278.61 222.44 282.99 C 221.42 282.44 220.41 281.88 219.39 281.33 C 219.88 279.41 220.34 277.50 220.80 275.58 C 219.61 275.72 218.37 276.34 217.18 276.03 C 216.44 274.47 215.91 272.83 215.27 271.24 Z" fill="#222223" opacity="1.00" stroke="#222223" stroke-width="0.25"/>
<path d="M 203.22 223.30 C 207.06 220.87 207.86 215.62 211.91 213.53 L 212.48 214.78 C 203.59 230.18 194.81 245.65 185.83 261.00 C 181.86 262.19 180.81 266.58 178.61 269.59 C 175.84 273.54 173.69 278.00 170.08 281.30 C 169.59 279.87 169.10 278.45 168.65 277.02 C 166.77 278.47 164.60 279.46 162.44 280.42 C 161.58 279.90 160.71 279.38 159.85 278.86 C 171.96 258.10 183.36 236.93 195.16 216.00 C 196.19 217.30 197.25 218.57 198.32 219.84 C 199.04 218.70 199.76 217.56 200.48 216.42 C 201.85 217.16 203.21 217.90 204.58 218.64 C 204.02 220.16 203.55 221.71 203.22 223.30 Z" fill="#1d1d1e" opacity="1.00" stroke="#1d1d1e" stroke-width="0.25"/>
<path d="M 252.65 226.97 C 259.88 241.80 268.20 256.05 276.26 270.42 C 279.09 275.34 281.61 280.43 284.15 285.51 C 282.97 285.57 280.60 285.71 279.42 285.77 C 283.29 290.37 285.34 296.17 288.42 301.28 C 293.64 310.66 298.76 320.09 304.14 329.38 C 308.87 337.63 313.48 345.95 318.37 354.11 C 323.46 362.42 327.76 371.24 333.34 379.24 C 335.63 378.74 337.71 377.63 339.94 376.95 C 342.36 376.51 344.79 377.21 347.16 377.71 C 357.54 380.14 368.03 382.09 378.58 383.61 C 376.59 385.72 373.62 385.29 371.01 385.37 C 341.35 385.43 311.68 385.54 282.01 385.42 C 277.67 385.46 273.32 385.57 269.01 385.05 C 268.39 380.37 268.65 375.65 268.68 370.95 C 268.44 347.63 268.83 324.30 268.59 300.98 C 268.48 297.45 267.82 293.89 268.51 290.37 C 281.67 312.81 294.91 335.21 307.89 357.75 C 311.01 363.12 314.04 368.56 316.93 374.06 C 317.92 375.64 318.64 377.55 320.21 378.65 C 323.93 378.97 327.67 378.80 331.39 379.12 C 326.15 368.11 319.58 357.80 313.48 347.26 C 303.01 328.83 292.36 310.49 282.34 291.81 C 279.11 286.17 275.02 281.09 271.88 275.40 C 265.27 264.38 259.35 252.95 252.38 242.16 C 244.21 256.26 236.17 270.43 228.15 284.62 C 219.85 301.06 210.11 316.74 201.50 333.03 C 193.15 348.28 184.43 363.33 176.25 378.68 C 180.01 378.49 183.79 379.07 187.54 378.74 C 192.77 371.35 196.65 363.10 201.29 355.35 C 203.53 351.63 205.64 347.83 207.65 343.98 C 212.44 335.90 216.73 327.54 221.39 319.38 C 225.64 311.90 229.29 303.97 234.78 297.29 L 235.01 297.87 C 234.31 314.23 234.78 330.62 234.67 346.99 C 234.78 356.86 234.54 366.74 234.90 376.61 L 234.77 377.58 L 234.64 378.47 C 236.20 378.39 237.77 378.30 239.34 378.22 C 239.77 367.59 239.40 356.93 239.82 346.30 C 245.81 346.37 251.81 346.22 257.80 346.45 C 257.83 359.72 257.64 372.99 257.82 386.26 C 232.88 386.58 207.94 386.15 183.00 386.49 C 162.01 386.48 141.02 386.81 120.03 386.37 C 118.15 386.32 116.24 386.29 114.45 385.71 C 118.73 379.68 121.36 372.68 125.25 366.41 C 137.54 368.87 149.66 372.12 161.87 374.98 C 166.41 375.99 170.74 377.76 175.21 379.03 C 179.65 370.81 184.05 362.57 188.65 354.44 C 195.45 342.47 201.94 330.33 208.77 318.37 C 213.27 310.57 217.52 302.64 222.01 294.84 C 223.61 291.66 225.66 288.64 226.43 285.12 C 224.78 285.07 223.13 285.03 221.48 285.01 C 221.72 284.51 222.20 283.50 222.44 282.99 C 224.39 278.61 226.84 274.49 229.22 270.34 C 237.17 255.96 245.23 241.64 252.65 226.97 Z" fill="#d9d9d9" opacity="1.00" stroke="#d9d9d9" stroke-width="0.25"/>
<path d="M 332.41 229.79 C 334.09 238.13 332.39 246.71 333.65 255.11 C 334.19 249.01 333.37 242.84 334.45 236.78 C 335.09 240.62 335.08 244.54 335.87 248.36 C 335.99 251.33 336.00 254.30 336.02 257.27 C 336.13 259.69 335.69 262.25 336.47 264.56 C 339.47 267.94 343.88 269.96 346.11 274.04 C 352.91 285.50 359.33 297.18 366.13 308.64 C 365.14 309.65 364.15 310.67 363.17 311.69 C 360.85 306.54 356.82 302.42 354.60 297.25 C 354.11 298.12 353.62 299.00 353.14 299.87 C 353.22 298.38 353.31 296.90 353.39 295.42 C 350.66 294.47 349.07 291.93 346.64 290.55 C 345.53 289.96 345.01 288.74 344.30 287.79 C 343.08 287.65 341.82 287.69 340.65 287.33 C 338.90 285.90 338.58 283.55 337.99 281.53 C 336.97 281.97 335.95 282.41 334.94 282.86 C 325.54 267.31 316.58 251.52 307.48 235.82 C 307.88 235.52 308.67 234.92 309.07 234.62 C 310.98 235.52 312.97 236.64 315.17 236.19 C 320.66 235.34 326.16 236.24 331.65 236.62 C 331.86 234.34 332.09 232.06 332.41 229.79 Z" fill="#181818" opacity="1.00" stroke="#181818" stroke-width="0.25"/>
<path d="M 301.50 230.58 C 313.20 251.57 325.94 271.97 337.93 292.80 C 336.36 294.72 334.77 296.62 333.13 298.49 C 326.75 298.47 320.37 297.87 313.98 298.01 C 308.26 298.08 302.48 298.31 296.83 297.20 C 296.64 298.02 296.46 298.86 296.28 299.70 C 295.35 299.27 294.43 298.85 293.51 298.43 C 291.80 299.35 290.10 300.30 288.42 301.28 C 285.34 296.17 283.29 290.37 279.42 285.77 C 280.60 285.71 282.97 285.57 284.15 285.51 C 281.61 280.43 279.09 275.34 276.26 270.42 C 277.50 270.24 278.55 270.85 279.07 271.97 C 281.08 275.10 282.85 278.37 284.82 281.52 C 285.31 281.66 285.81 281.79 286.31 281.94 C 284.81 278.94 285.07 275.50 287.54 273.10 C 286.51 270.57 285.91 267.86 286.52 265.14 C 290.07 270.66 292.97 276.53 296.23 282.21 C 295.48 279.91 294.45 277.71 293.28 275.60 C 285.51 261.33 276.94 247.52 269.19 233.24 C 269.92 233.25 271.39 233.26 272.12 233.27 C 273.51 236.50 275.27 239.54 276.71 242.74 C 279.10 240.96 277.62 237.37 279.82 235.71 C 284.24 235.19 288.77 235.80 293.09 236.83 C 294.65 237.14 296.31 237.61 297.88 237.06 C 300.70 236.37 300.47 232.72 301.50 230.58 Z" fill="#1a1a1a" opacity="1.00" stroke="#1a1a1a" stroke-width="0.25"/>
<path d="M 228.15 284.62 C 236.17 270.43 244.21 256.26 252.38 242.16 C 259.35 252.95 265.27 264.38 271.88 275.40 C 271.38 276.21 270.88 277.02 270.39 277.84 C 271.11 279.61 272.52 281.45 271.57 283.42 C 270.09 281.38 268.49 279.42 266.62 277.72 C 266.86 278.68 267.11 279.64 267.36 280.60 C 266.45 282.11 265.56 283.72 265.73 285.55 C 265.69 300.72 266.27 315.91 265.45 331.06 C 264.51 325.07 265.22 318.99 264.61 312.98 C 264.16 308.57 263.98 304.15 263.58 299.75 C 261.49 311.05 264.44 322.81 261.46 334.05 C 260.82 327.30 261.54 320.49 260.67 313.76 C 259.36 321.95 261.00 330.36 259.17 338.48 C 258.18 319.02 258.89 299.51 258.56 280.03 C 258.32 276.39 259.46 272.38 257.49 269.07 C 256.04 266.24 254.90 263.26 253.63 260.35 C 248.79 268.17 244.55 276.35 240.14 284.43 L 239.76 285.09 C 238.73 286.16 237.53 287.27 237.82 288.93 C 237.91 315.63 236.42 342.33 237.29 369.04 C 237.35 371.10 237.36 373.30 235.94 374.96 C 235.92 350.61 235.62 326.27 235.91 301.93 C 236.01 300.50 235.63 299.13 235.01 297.87 L 234.78 297.29 C 235.46 296.83 236.16 296.42 236.86 296.00 C 235.35 294.75 233.69 293.62 232.49 292.05 C 232.47 290.77 232.64 289.50 232.76 288.24 C 232.02 289.12 231.29 290.01 230.55 290.90 C 230.30 290.63 229.78 290.09 229.53 289.82 C 229.80 288.65 230.08 287.48 230.36 286.31 C 229.62 285.74 228.89 285.18 228.15 284.62 Z" fill="#202021" opacity="1.00" stroke="#202021" stroke-width="0.25"/>
<path d="M 178.61 269.59 C 180.81 266.58 181.86 262.19 185.83 261.00 C 183.01 266.34 179.73 271.42 176.76 276.68 C 166.32 294.45 156.89 312.79 146.47 330.57 C 144.10 329.71 141.90 328.36 139.42 327.81 C 137.93 327.82 136.52 328.42 135.11 328.81 C 135.40 326.69 138.08 323.57 135.04 322.43 C 143.33 307.92 151.66 293.43 159.85 278.86 C 160.71 279.38 161.58 279.90 162.44 280.42 C 164.60 279.46 166.77 278.47 168.65 277.02 C 169.10 278.45 169.59 279.87 170.08 281.30 C 173.69 278.00 175.84 273.54 178.61 269.59 Z" fill="#101011" opacity="1.00" stroke="#101011" stroke-width="0.25"/>
<path d="M 253.63 260.35 C 254.90 263.26 256.04 266.24 257.49 269.07 C 258.03 273.01 257.91 277.00 257.92 280.97 C 257.92 300.70 257.74 320.44 257.89 340.17 L 257.43 340.03 C 252.12 338.17 246.40 339.30 240.90 338.99 C 240.48 328.99 240.97 318.98 240.75 308.97 C 240.56 300.79 241.30 292.55 240.14 284.43 C 244.55 276.35 248.79 268.17 253.63 260.35 Z" fill="#dbdbdb" opacity="1.00" stroke="#dbdbdb" stroke-width="0.25"/>
<path d="M 160.28 308.47 C 168.31 295.03 176.74 281.83 184.60 268.29 C 184.88 268.98 185.44 270.36 185.72 271.05 C 184.20 272.71 183.14 274.69 183.08 276.98 C 184.11 276.20 185.07 275.33 186.03 274.47 C 187.17 272.66 188.50 270.98 189.91 269.37 C 192.17 271.64 195.53 271.66 198.13 273.31 C 202.49 276.03 207.89 274.95 212.70 274.43 C 211.44 276.72 210.20 279.01 209.14 281.40 C 211.43 278.17 213.21 274.62 215.27 271.24 C 215.91 272.83 216.44 274.47 217.18 276.03 C 218.37 276.34 219.61 275.72 220.80 275.58 C 220.34 277.50 219.88 279.41 219.39 281.33 C 220.41 281.88 221.42 282.44 222.44 282.99 C 222.20 283.50 221.72 284.51 221.48 285.01 C 223.13 285.03 224.78 285.07 226.43 285.12 C 225.66 288.64 223.61 291.66 222.01 294.84 C 217.52 302.64 213.27 310.57 208.77 318.37 C 207.66 318.02 206.57 317.69 205.47 317.35 C 205.35 316.46 205.23 315.58 205.12 314.69 C 204.85 314.57 204.32 314.33 204.05 314.20 C 203.60 314.80 203.15 315.41 202.70 316.02 C 196.94 316.56 191.18 315.40 185.88 313.18 C 181.44 311.23 176.66 314.08 172.09 312.90 C 170.11 312.59 169.23 310.54 167.79 309.40 C 165.85 309.09 164.29 310.73 162.65 311.52 C 161.86 310.50 161.07 309.48 160.28 308.47 Z" fill="#151515" opacity="1.00" stroke="#151515" stroke-width="0.25"/>
<path d="M 257.49 269.07 C 259.46 272.38 258.32 276.39 258.56 280.03 C 258.89 299.51 258.18 319.02 259.17 338.48 C 259.06 338.98 258.85 339.99 258.75 340.49 C 258.54 340.41 258.10 340.25 257.89 340.17 C 257.74 320.44 257.92 300.70 257.92 280.97 C 257.91 277.00 258.03 273.01 257.49 269.07 Z" fill="#030304" opacity="1.00" stroke="#030304" stroke-width="0.25"/>
<path d="M 270.39 277.84 C 270.88 277.02 271.38 276.21 271.88 275.40 C 275.02 281.09 279.11 286.17 282.34 291.81 C 292.36 310.49 303.01 328.83 313.48 347.26 C 312.35 349.31 312.35 351.54 313.15 353.68 C 312.38 355.57 311.76 357.52 311.41 359.54 C 310.23 358.95 309.04 358.36 307.89 357.75 C 294.91 335.21 281.67 312.81 268.51 290.37 C 268.07 289.63 267.64 288.88 267.20 288.15 C 267.72 297.11 267.49 306.10 267.58 315.08 C 267.53 336.03 267.86 356.98 267.96 377.93 C 267.33 377.28 266.71 376.64 266.08 375.99 C 265.85 378.97 265.65 381.95 265.58 384.93 C 264.88 382.18 263.87 379.53 262.70 376.95 C 261.73 380.03 260.15 382.90 259.47 386.07 C 258.96 372.45 259.06 358.82 258.78 345.20 C 252.03 345.22 245.24 344.62 238.51 345.43 C 237.80 355.89 238.34 366.39 237.88 376.86 C 237.11 377.04 235.55 377.40 234.77 377.58 L 234.90 376.61 C 235.16 376.20 235.68 375.37 235.94 374.96 C 237.36 373.30 237.35 371.10 237.29 369.04 C 236.42 342.33 237.91 315.63 237.82 288.93 C 237.53 287.27 238.73 286.16 239.76 285.09 C 239.29 303.46 239.91 321.85 239.90 340.23 C 245.74 340.14 251.59 340.29 257.43 340.03 L 257.89 340.17 C 258.10 340.25 258.54 340.41 258.75 340.49 C 258.85 339.99 259.06 338.98 259.17 338.48 C 261.00 330.36 259.36 321.95 260.67 313.76 C 261.54 320.49 260.82 327.30 261.46 334.05 C 264.44 322.81 261.49 311.05 263.58 299.75 C 263.98 304.15 264.16 308.57 264.61 312.98 C 265.22 318.99 264.51 325.07 265.45 331.06 C 266.27 315.91 265.69 300.72 265.73 285.55 C 265.56 283.72 266.45 282.11 267.36 280.60 C 267.11 279.64 266.86 278.68 266.62 277.72 C 268.49 279.42 270.09 281.38 271.57 283.42 C 272.52 281.45 271.11 279.61 270.39 277.84 Z" fill="#151516" opacity="1.00" stroke="#151516" stroke-width="0.25"/>
<path d="M 334.94 282.86 C 335.95 282.41 336.97 281.97 337.99 281.53 C 338.58 283.55 338.90 285.90 340.65 287.33 C 341.82 287.69 343.08 287.65 344.30 287.79 C 345.01 288.74 345.53 289.96 346.64 290.55 C 349.07 291.93 350.66 294.47 353.39 295.42 C 353.31 296.90 353.22 298.38 353.14 299.87 C 353.62 299.00 354.11 298.12 354.60 297.25 C 356.82 302.42 360.85 306.54 363.17 311.69 C 364.15 310.67 365.14 309.65 366.13 308.64 C 374.35 322.85 382.66 337.01 390.81 351.26 C 390.00 352.67 389.53 354.23 389.28 355.83 C 385.79 351.71 383.58 346.72 380.67 342.21 C 379.94 341.50 378.84 341.35 377.95 340.92 C 376.55 336.58 371.73 335.00 370.03 330.79 C 369.63 331.66 369.25 332.54 368.86 333.42 C 367.41 333.38 365.95 333.34 364.51 333.32 C 354.76 316.44 345.02 299.54 334.94 282.86 Z" fill="#0d0d0e" opacity="1.00" stroke="#0d0d0e" stroke-width="0.25"/>
<path d="M 228.15 284.62 C 228.89 285.18 229.62 285.74 230.36 286.31 C 230.08 287.48 229.80 288.65 229.53 289.82 C 229.78 290.09 230.30 290.63 230.55 290.90 C 231.29 290.01 232.02 289.12 232.76 288.24 C 232.64 289.50 232.47 290.77 232.49 292.05 C 233.69 293.62 235.35 294.75 236.86 296.00 C 236.16 296.42 235.46 296.83 234.78 297.29 C 229.29 303.97 225.64 311.90 221.39 319.38 C 216.73 327.54 212.44 335.90 207.65 343.98 C 204.95 345.72 202.81 348.14 200.25 350.06 C 200.66 348.59 201.09 347.13 201.53 345.68 C 200.81 344.81 200.10 343.95 199.39 343.09 C 200.63 343.26 201.87 343.43 203.11 343.62 C 202.27 342.76 201.38 341.94 200.65 341.00 C 200.93 338.34 201.65 335.73 201.50 333.03 C 210.11 316.74 219.85 301.06 228.15 284.62 Z" fill="#181719" opacity="1.00" stroke="#181719" stroke-width="0.25"/>
<path d="M 240.14 284.43 C 241.30 292.55 240.56 300.79 240.75 308.97 C 240.97 318.98 240.48 328.99 240.90 338.99 C 246.40 339.30 252.12 338.17 257.43 340.03 C 251.59 340.29 245.74 340.14 239.90 340.23 C 239.91 321.85 239.29 303.46 239.76 285.09 L 240.14 284.43 Z" fill="#efefef" opacity="1.00" stroke="#efefef" stroke-width="0.25"/>
<path d="M 333.13 298.49 C 334.77 296.62 336.36 294.72 337.93 292.80 C 343.96 303.01 349.98 313.23 355.82 323.55 C 355.36 324.04 354.44 325.01 353.98 325.50 C 354.78 326.64 355.57 327.79 356.37 328.95 C 356.18 330.10 355.99 331.26 355.82 332.42 C 352.99 332.47 350.19 332.17 347.42 331.62 C 335.38 329.91 323.12 330.28 311.18 327.73 C 308.65 326.93 306.22 327.96 304.14 329.38 C 298.76 320.09 293.64 310.66 288.42 301.28 C 290.10 300.30 291.80 299.35 293.51 298.43 C 294.43 298.85 295.35 299.27 296.28 299.70 C 296.46 298.86 296.64 298.02 296.83 297.20 C 302.48 298.31 308.26 298.08 313.98 298.01 C 320.37 297.87 326.75 298.47 333.13 298.49 Z" fill="#151615" opacity="1.00" stroke="#151615" stroke-width="0.25"/>
<path d="M 235.01 297.87 C 235.63 299.13 236.01 300.50 235.91 301.93 C 235.62 326.27 235.92 350.61 235.94 374.96 C 235.68 375.37 235.16 376.20 234.90 376.61 C 234.54 366.74 234.78 356.86 234.67 346.99 C 234.78 330.62 234.31 314.23 235.01 297.87 Z" fill="#0a090b" opacity="1.00" stroke="#0a090b" stroke-width="0.25"/>
<path d="M 160.28 308.47 C 161.07 309.48 161.86 310.50 162.65 311.52 C 164.29 310.73 165.85 309.09 167.79 309.40 C 169.23 310.54 170.11 312.59 172.09 312.90 C 176.66 314.08 181.44 311.23 185.88 313.18 C 191.18 315.40 196.94 316.56 202.70 316.02 C 203.15 315.41 203.60 314.80 204.05 314.20 C 204.32 314.33 204.85 314.57 205.12 314.69 C 205.23 315.58 205.35 316.46 205.47 317.35 C 206.57 317.69 207.66 318.02 208.77 318.37 C 201.94 330.33 195.45 342.47 188.65 354.44 C 186.09 354.38 183.53 354.36 180.98 354.15 C 175.40 353.89 170.26 351.08 164.63 351.17 C 156.75 351.27 148.97 349.99 141.11 349.70 C 137.98 349.61 134.54 348.06 131.64 349.81 C 129.69 350.95 127.18 350.17 125.20 351.26 C 123.88 351.91 123.55 353.47 122.88 354.64 C 121.32 358.32 117.47 360.61 116.56 364.63 C 116.13 365.59 117.02 366.30 117.49 367.02 C 117.97 366.14 118.43 365.25 118.90 364.37 C 120.97 365.19 123.07 365.95 125.25 366.41 C 121.36 372.68 118.73 379.68 114.45 385.71 C 113.00 385.25 111.37 383.43 109.95 384.95 C 108.20 387.02 107.99 390.08 105.91 391.90 C 101.96 394.56 97.45 396.79 92.56 396.08 C 106.62 371.46 121.26 347.20 135.04 322.43 C 138.08 323.57 135.40 326.69 135.11 328.81 C 136.52 328.42 137.93 327.82 139.42 327.81 C 141.90 328.36 144.10 329.71 146.47 330.57 C 146.65 330.64 147.00 330.77 147.18 330.83 C 151.53 323.37 155.72 315.81 160.28 308.47 Z" fill="#0a0a0a" opacity="1.00" stroke="#0a0a0a" stroke-width="0.25"/>
<path d="M 353.98 325.50 C 354.44 325.01 355.36 324.04 355.82 323.55 C 360.83 332.59 366.22 341.41 371.45 350.33 C 371.12 351.47 370.79 352.62 370.47 353.77 C 371.27 355.09 372.07 356.41 372.87 357.73 C 369.51 359.82 365.48 358.75 361.81 358.41 C 357.26 357.74 352.41 358.00 348.25 355.73 C 344.38 353.24 339.62 356.48 335.65 354.32 C 333.09 353.07 330.20 352.34 327.50 353.64 C 324.55 355.28 321.42 353.02 318.37 354.11 C 313.48 345.95 308.87 337.63 304.14 329.38 C 306.22 327.96 308.65 326.93 311.18 327.73 C 323.12 330.28 335.38 329.91 347.42 331.62 C 350.19 332.17 352.99 332.47 355.82 332.42 C 355.99 331.26 356.18 330.10 356.37 328.95 C 355.57 327.79 354.78 326.64 353.98 325.50 Z" fill="#0f0f0f" opacity="1.00" stroke="#0f0f0f" stroke-width="0.25"/>
<path d="M 370.03 330.79 C 371.73 335.00 376.55 336.58 377.95 340.92 C 378.84 341.35 379.94 341.50 380.67 342.21 C 383.58 346.72 385.79 351.71 389.28 355.83 C 389.53 354.23 390.00 352.67 390.81 351.26 C 400.54 367.72 409.62 384.55 419.56 400.89 C 326.72 401.00 233.88 400.92 141.04 400.90 C 123.85 401.03 106.66 400.64 89.48 401.11 C 90.53 399.45 91.56 397.77 92.56 396.08 C 97.45 396.79 101.96 394.56 105.91 391.90 C 107.99 390.08 108.20 387.02 109.95 384.95 C 111.37 383.43 113.00 385.25 114.45 385.71 C 116.24 386.29 118.15 386.32 120.03 386.37 C 141.02 386.81 162.01 386.48 183.00 386.49 C 207.94 386.15 232.88 386.58 257.82 386.26 C 257.64 372.99 257.83 359.72 257.80 346.45 C 251.81 346.22 245.81 346.37 239.82 346.30 C 239.40 356.93 239.77 367.59 239.34 378.22 C 237.77 378.30 236.20 378.39 234.64 378.47 L 234.77 377.58 C 235.55 377.40 237.11 377.04 237.88 376.86 C 238.34 366.39 237.80 355.89 238.51 345.43 C 245.24 344.62 252.03 345.22 258.78 345.20 C 259.06 358.82 258.96 372.45 259.47 386.07 C 260.15 382.90 261.73 380.03 262.70 376.95 C 263.87 379.53 264.88 382.18 265.58 384.93 C 265.65 381.95 265.85 378.97 266.08 375.99 C 266.71 376.64 267.33 377.28 267.96 377.93 C 267.95 380.78 267.99 383.63 268.01 386.48 C 284.67 386.52 301.34 386.31 318.00 386.44 C 344.08 386.68 370.18 385.99 396.25 386.86 C 392.36 382.44 390.01 376.99 387.04 371.97 C 379.52 359.09 372.16 346.12 364.51 333.32 C 365.95 333.34 367.41 333.38 368.86 333.42 C 369.25 332.54 369.63 331.66 370.03 330.79 Z" fill="#050405" opacity="1.00" stroke="#050405" stroke-width="0.25"/>
<path d="M 176.25 378.68 C 184.43 363.33 193.15 348.28 201.50 333.03 C 201.65 335.73 200.93 338.34 200.65 341.00 C 201.38 341.94 202.27 342.76 203.11 343.62 C 201.87 343.43 200.63 343.26 199.39 343.09 C 200.10 343.95 200.81 344.81 201.53 345.68 C 201.09 347.13 200.66 348.59 200.25 350.06 C 202.81 348.14 204.95 345.72 207.65 343.98 C 205.64 347.83 203.53 351.63 201.29 355.35 C 196.65 363.10 192.77 371.35 187.54 378.74 C 183.79 379.07 180.01 378.49 176.25 378.68 Z" fill="#0b0a0c" opacity="1.00" stroke="#0b0a0c" stroke-width="0.25"/>
<path d="M 313.48 347.26 C 319.58 357.80 326.15 368.11 331.39 379.12 C 327.67 378.80 323.93 378.97 320.21 378.65 C 318.64 377.55 317.92 375.64 316.93 374.06 C 314.04 368.56 311.01 363.12 307.89 357.75 C 309.04 358.36 310.23 358.95 311.41 359.54 C 311.76 357.52 312.38 355.57 313.15 353.68 C 312.35 351.54 312.35 349.31 313.48 347.26 Z" fill="#0e0d0f" opacity="1.00" stroke="#0e0d0f" stroke-width="0.25"/>
<path d="M 131.64 349.81 C 134.54 348.06 137.98 349.61 141.11 349.70 C 148.97 349.99 156.75 351.27 164.63 351.17 C 170.26 351.08 175.40 353.89 180.98 354.15 C 183.53 354.36 186.09 354.38 188.65 354.44 C 184.05 362.57 179.65 370.81 175.21 379.03 C 170.74 377.76 166.41 375.99 161.87 374.98 C 149.66 372.12 137.54 368.87 125.25 366.41 C 123.07 365.95 120.97 365.19 118.90 364.37 C 118.43 365.25 117.97 366.14 117.49 367.02 C 117.02 366.30 116.13 365.59 116.56 364.63 C 117.47 360.61 121.32 358.32 122.88 354.64 C 123.55 353.47 123.88 351.91 125.20 351.26 C 127.18 350.17 129.69 350.95 131.64 349.81 Z" fill="#030304" opacity="1.00" stroke="#030304" stroke-width="0.25"/>
<path d="M 371.45 350.33 C 378.25 361.59 384.19 373.35 391.20 384.47 C 386.99 384.14 382.77 384.05 378.58 383.61 C 368.03 382.09 357.54 380.14 347.16 377.71 C 344.79 377.21 342.36 376.51 339.94 376.95 C 337.71 377.63 335.63 378.74 333.34 379.24 C 327.76 371.24 323.46 362.42 318.37 354.11 C 321.42 353.02 324.55 355.28 327.50 353.64 C 330.20 352.34 333.09 353.07 335.65 354.32 C 339.62 356.48 344.38 353.24 348.25 355.73 C 352.41 358.00 357.26 357.74 361.81 358.41 C 365.48 358.75 369.51 359.82 372.87 357.73 C 372.07 356.41 371.27 355.09 370.47 353.77 C 370.79 352.62 371.12 351.47 371.45 350.33 Z" fill="#080808" opacity="1.00" stroke="#080808" stroke-width="0.25"/>
<path d="M 286.93 378.82 C 290.50 372.11 294.50 365.63 298.31 359.06 C 302.01 365.67 306.26 372.02 309.27 378.99 C 301.82 378.96 294.37 378.82 286.93 378.82 Z" fill="#0a0a0a" opacity="1.00" stroke="#0a0a0a" stroke-width="0.25"/>
<path d="M 174.88 380.56 C 178.93 380.12 183.16 379.54 187.15 380.65 C 183.08 381.22 178.93 381.18 174.88 380.56 Z" fill="#c6c5c5" opacity="1.00" stroke="#c6c5c5" stroke-width="0.25"/>
</svg>